<svg width="900" height="700" viewBox="0 0 900 700" fill="none" xmlns="http://www.w3.org/2000/svg">
  <rect width="900" height="700" rx="42" fill="url(#bg)"/>
  <circle cx="750" cy="132" r="62" fill="#F0D7A1"/>
  <path d="M0 402C129 320 272 298 404 330C523 359 625 444 759 450C809 452 856 444 900 430V700H0V402Z" fill="#215C34"/>
  <path d="M0 516C138 462 277 448 399 469C546 494 656 576 790 589C827 592 864 592 900 588V700H0V516Z" fill="#67D67D"/>
  <rect x="146" y="298" width="184" height="144" rx="20" fill="#F4F1DE"/>
  <path d="M126 306L236 214L347 306H126Z" fill="#D0B285"/>
  <rect x="206" y="360" width="56" height="82" rx="12" fill="#8C653E"/>
  <path d="M572 352L640 284L708 352L640 420L572 352Z" fill="#D6F8DF"/>
  <rect x="612" y="240" width="54" height="120" rx="18" fill="#7E5730"/>
  <defs>
    <linearGradient id="bg" x1="450" y1="0" x2="450" y2="700" gradientUnits="userSpaceOnUse">
      <stop stop-color="#0D2C1B"/>
      <stop offset="1" stop-color="#08140E"/>
    </linearGradient>
  </defs>
</svg>
